<svg width="18" height="18" viewBox="0 0 18 18" fill="none" xmlns="http://www.w3.org/2000/svg">
<path d="M13.0363 5.20678C12.9671 5.04018 12.8347 4.90779 12.6681 4.8386C12.5861 4.80367 12.4981 4.78513 12.409 4.78406H5.5908C5.40997 4.78406 5.23655 4.85589 5.10868 4.98376C4.98082 5.11162 4.90898 5.28505 4.90898 5.46588C4.90898 5.64671 4.98082 5.82013 5.10868 5.94799C5.23655 6.07586 5.40997 6.14769 5.5908 6.14769H10.7658L5.10671 11.8C5.0428 11.8634 4.99208 11.9388 4.95747 12.0218C4.92285 12.1049 4.90503 12.194 4.90503 12.2841C4.90503 12.3741 4.92285 12.4632 4.95747 12.5463C4.99208 12.6294 5.0428 12.7048 5.10671 12.7681C5.17009 12.8321 5.2455 12.8828 5.32859 12.9174C5.41168 12.952 5.50079 12.9698 5.5908 12.9698C5.68081 12.9698 5.76993 12.952 5.85301 12.9174C5.9361 12.8828 6.01151 12.8321 6.07489 12.7681L11.7272 7.10906V12.2841C11.7272 12.4649 11.799 12.6383 11.9269 12.7662C12.0547 12.894 12.2282 12.9659 12.409 12.9659C12.5898 12.9659 12.7632 12.894 12.8911 12.7662C13.019 12.6383 13.0908 12.4649 13.0908 12.2841V5.46588C13.0897 5.37678 13.0712 5.28875 13.0363 5.20678Z" fill="#D40000"/>
</svg>
