<svg width="18" height="18" viewBox="0 0 18 18" fill="none" xmlns="http://www.w3.org/2000/svg">
<path d="M13.0363 5.33178C12.9671 5.16518 12.8347 5.03279 12.6681 4.9636C12.5861 4.92867 12.4981 4.91013 12.409 4.90906H5.5908C5.40997 4.90906 5.23655 4.98089 5.10868 5.10876C4.98082 5.23662 4.90898 5.41005 4.90898 5.59088C4.90898 5.77171 4.98082 5.94513 5.10868 6.07299C5.23655 6.20086 5.40997 6.27269 5.5908 6.27269H10.7658L5.10671 11.925C5.0428 11.9884 4.99208 12.0638 4.95747 12.1468C4.92285 12.2299 4.90503 12.319 4.90503 12.4091C4.90503 12.4991 4.92285 12.5882 4.95747 12.6713C4.99208 12.7544 5.0428 12.8298 5.10671 12.8931C5.17009 12.9571 5.2455 13.0078 5.32859 13.0424C5.41168 13.077 5.50079 13.0948 5.5908 13.0948C5.68081 13.0948 5.76993 13.077 5.85301 13.0424C5.9361 13.0078 6.01151 12.9571 6.07489 12.8931L11.7272 7.23406V12.4091C11.7272 12.5899 11.799 12.7633 11.9269 12.8912C12.0547 13.019 12.2282 13.0909 12.409 13.0909C12.5898 13.0909 12.7632 13.019 12.8911 12.8912C13.019 12.7633 13.0908 12.5899 13.0908 12.4091V5.59088C13.0897 5.50178 13.0712 5.41375 13.0363 5.33178Z" fill="white"/>
</svg>
