<svg width="21" height="21" viewBox="0 0 21 21" fill="none" xmlns="http://www.w3.org/2000/svg">
<path d="M8.88944 11.5881L8.99563 11.6943L9.10169 11.588L13.2125 7.46759C13.2126 7.46753 13.2126 7.46747 13.2127 7.46742C13.3641 7.31697 13.5689 7.23253 13.7824 7.23253C13.9959 7.23253 14.2008 7.31704 14.3523 7.46759L14.3524 7.46771C14.4281 7.54286 14.4883 7.63226 14.5293 7.73076C14.5703 7.82926 14.5915 7.93492 14.5915 8.04163C14.5915 8.14834 14.5703 8.25399 14.5293 8.35249C14.4883 8.45099 14.4281 8.5404 14.3524 8.61554L14.3519 8.61598L9.5607 13.4072C9.56067 13.4072 9.56063 13.4073 9.56059 13.4073C9.41004 13.5566 9.20688 13.6407 8.99487 13.6416L8.99464 13.6416C8.88825 13.6422 8.7828 13.6219 8.68431 13.5816C8.58595 13.5415 8.49648 13.4823 8.42101 13.4075C8.42091 13.4074 8.42082 13.4073 8.42072 13.4072L6.16929 11.1462L6.16963 11.1459L6.16057 11.1381C6.07595 11.0656 6.00723 10.9765 5.95871 10.8762C5.91019 10.7759 5.88293 10.6667 5.87862 10.5553C5.87433 10.444 5.89308 10.333 5.93372 10.2293C5.97436 10.1256 6.036 10.0313 6.11478 9.95257C6.19355 9.87379 6.28776 9.81215 6.39149 9.77151C6.49522 9.73087 6.60623 9.71212 6.71755 9.71642C6.82888 9.72072 6.93811 9.74798 7.0384 9.7965C7.13868 9.84502 7.22786 9.91374 7.30032 9.99836L7.29998 9.99865L7.30819 10.0069L8.88944 11.5881ZM5.25921 2.59393C6.81051 1.55738 8.63435 1.00413 10.5001 1.00413C11.7389 1.00413 12.9656 1.24813 14.1101 1.7222C15.2546 2.19627 16.2945 2.89112 17.1705 3.76709C18.0464 4.64305 18.7413 5.68297 19.2153 6.82748C19.6894 7.97198 19.9334 9.19866 19.9334 10.4375C19.9334 12.3032 19.3802 14.127 18.3436 15.6783C17.3071 17.2296 15.8338 18.4387 14.1101 19.1527C12.3863 19.8667 10.4896 20.0535 8.65973 19.6895C6.82985 19.3255 5.14899 18.4271 3.82971 17.1078C2.51044 15.7886 1.612 14.1077 1.24801 12.2778C0.884024 10.4479 1.07084 8.55119 1.78482 6.82748C2.49881 5.10376 3.7079 3.63048 5.25921 2.59393ZM6.15738 16.9368C7.44282 17.7957 8.9541 18.2541 10.5001 18.2541C12.5732 18.2541 14.5614 17.4306 16.0273 15.9647C17.4932 14.4988 18.3168 12.5106 18.3168 10.4375C18.3168 8.89147 17.8583 7.3802 16.9994 6.09475C16.1405 4.80931 14.9197 3.80743 13.4914 3.2158C12.0631 2.62418 10.4914 2.46938 8.97513 2.77099C7.45885 3.0726 6.06605 3.81706 4.97287 4.91024C3.87969 6.00342 3.13522 7.39622 2.83361 8.9125C2.53201 10.4288 2.6868 12.0005 3.27843 13.4288C3.87005 14.8571 4.87193 16.0779 6.15738 16.9368Z" fill="white" stroke="#D40000" stroke-width="0.3"/>
</svg>
