<svg width="36" height="35" viewBox="0 0 36 35" fill="none" xmlns="http://www.w3.org/2000/svg">
<path d="M22.033 20.5498L21.8036 20.4233C20.3892 19.6435 19.0824 18.6918 17.9147 17.5912L17.909 17.5859L17.9091 17.5858C16.777 16.4505 15.7978 15.1796 14.9952 13.8037L14.8545 13.5625L15.1097 13.4493L15.7679 13.1572C16.3492 12.8796 16.8028 12.404 17.0436 11.8234C17.2847 11.2422 17.2961 10.5953 17.076 10.0064C17.0759 10.0063 17.0758 10.0061 17.0758 10.0059L22.033 20.5498ZM22.033 20.5498L22.1486 20.3148L22.4638 19.674C22.464 19.6737 22.4641 19.6734 22.4643 19.673C22.7481 19.11 23.237 18.667 23.8387 18.4311C24.4405 18.1952 25.1111 18.1838 25.721 18.3993C26.3452 18.6267 26.9847 18.8118 27.6351 18.9532C27.6917 18.9657 27.7514 18.9799 27.8135 18.9947C28.0628 19.054 28.3508 19.1226 28.6268 19.1265C29.5376 19.3061 30.3567 19.7832 30.9483 20.4771C31.5443 21.1763 31.873 22.0529 31.8805 22.9587V27.1503V27.1507C31.8813 27.7052 31.7615 28.2538 31.5288 28.7607C31.296 29.2675 30.9555 29.7214 30.529 30.0922C29.7837 30.7376 28.8188 31.0945 27.8184 31.093L27.8089 31.093L27.7995 31.0937C27.6274 31.1065 27.4545 31.1067 27.2823 31.0942C21.3547 30.3401 15.8494 27.7065 11.6191 23.6028C7.39681 19.4887 4.68964 14.1361 3.91582 8.37565L3.91559 8.37407C3.83633 7.81127 3.88331 7.23842 4.05341 6.69474C4.22346 6.15117 4.51268 5.6493 4.90164 5.22376C5.28282 4.8095 5.75017 4.47777 6.2733 4.25071C6.79657 4.0236 7.36357 3.90647 7.93709 3.9072H7.93741H12.2643V3.90722L12.2678 3.90717C13.2376 3.89346 14.1796 4.2169 14.9242 4.81781C15.6676 5.41764 16.1652 6.2542 16.3298 7.17643C16.3738 7.48867 16.4323 7.81592 16.5058 8.13026L22.033 20.5498ZM30.819 16.6841C30.8224 16.6844 30.8257 16.6847 30.8291 16.685L30.808 16.9341H30.923C31.2829 16.9355 31.6302 16.8057 31.8964 16.5702C32.1625 16.3347 32.3281 16.0108 32.3605 15.6623M30.819 16.6841H30.923H30.924C31.2234 16.6853 31.5112 16.5772 31.7307 16.383C31.9473 16.1914 32.0817 15.9301 32.1105 15.6501M30.819 16.6841C30.5076 16.6553 30.2216 16.5089 30.022 16.2786C29.8205 16.046 29.723 15.7467 29.749 15.4463L29.7499 15.4355V15.4247V15.4233V15.4218V15.4203V15.4188V15.4174V15.4159V15.4144V15.4129V15.4115V15.41V15.4085V15.4071V15.4056V15.4041V15.4027V15.4012V15.3997V15.3982V15.3968V15.3953V15.3938V15.3924V15.3909V15.3894V15.388V15.3865V15.385V15.3836V15.3821V15.3806V15.3792V15.3777V15.3763V15.3748V15.3733V15.3719V15.3704V15.3689V15.3675V15.366V15.3646V15.3631V15.3616V15.3602V15.3587V15.3572V15.3558V15.3543V15.3529V15.3514V15.3499V15.3485V15.347V15.3456V15.3441V15.3427V15.3412V15.3397V15.3383V15.3368V15.3354V15.3339V15.3325V15.331V15.3295V15.3281V15.3266V15.3252V15.3237V15.3223V15.3208V15.3194V15.3179V15.3164V15.315V15.3135V15.3121V15.3106V15.3092V15.3077V15.3063V15.3048V15.3034V15.3019V15.3005V15.299V15.2976V15.2961V15.2947V15.2932V15.2918V15.2903V15.2889V15.2874V15.286V15.2845V15.2831V15.2816V15.2802V15.2787V15.2773V15.2758V15.2744V15.2729V15.2715V15.27V15.2686V15.2671V15.2657V15.2642V15.2628V15.2614V15.2599V15.2585V15.257V15.2556V15.2541V15.2527V15.2512V15.2498V15.2484V15.2469V15.2455V15.244V15.2426V15.2411V15.2397V15.2382V15.2368V15.2354V15.2339V15.2325V15.231V15.2296V15.2281V15.2267V15.2253V15.2238V15.2224V15.2209V15.2195V15.2181V15.2166V15.2152V15.2137V15.2123V15.2108V15.2094V15.208V15.2065V15.2051V15.2036V15.2022V15.2008V15.1993V15.1979V15.1965V15.195V15.1936V15.1921V15.1907V15.1893V15.1878V15.1864V15.1849V15.1835V15.1821V15.1806V15.1792V15.1778V15.1763V15.1749V15.1734V15.172V15.1706V15.1691V15.1677V15.1663V15.1648V15.1634V15.1619V15.1605V15.1591V15.1576V15.1562V15.1548V15.1533V15.1519V15.1505V15.149V15.1476V15.1461V15.1447V15.1433V15.1418V15.1404V15.139V15.1375V15.1361V15.1347V15.1332V15.1318V15.1304V15.1289V15.1275V15.1261V15.1246V15.1232V15.1218V15.1203V15.1189V15.1174V15.116V15.1146V15.1131V15.1117V15.1103V15.1088V15.1074V15.106V15.1045V15.1031V15.1017V15.1002V15.0988V15.0974V15.0959V15.0945V15.0931V15.0916V15.0902V15.0888V15.0873V15.0859V15.0845V15.083V15.0816V15.0802V15.0787V15.0773V15.0759V15.0744V15.073V15.0716V15.0701V15.0687V15.0673V15.0658V15.0644V15.063V15.0615V15.0601V15.0587V15.0572V15.0558V15.0544V15.0529V15.0515V15.0501V15.0486V15.0472V15.0458V15.0443V15.0429V15.0415V15.04V15.0386V15.0372V15.0357V15.0343V15.0329V15.0314V15.03V15.0286V15.0271V15.0257V15.0243V15.0228V15.0214V15.02V15.0185V15.0171V15.0157V15.0142V15.0128V15.0114V15.0099V15.0085V15.0071V15.0056V15.0042V15.0028V15.0013V14.9999V14.9985V14.997V14.9956V14.9942V14.9927V14.9913V14.9899V14.9884V14.987V14.9856V14.9841V14.9827V14.9813V14.9798V14.9784V14.977V14.9755V14.9741V14.9727V14.9712V14.9698V14.9683V14.9669V14.9655V14.964V14.9626V14.9612V14.9597V14.9583V14.9569V14.9554V14.954V14.9526V14.9511V14.9497V14.9482V14.9468V14.9454V14.9439V14.9425V14.9411V14.9396V14.9382V14.9368V14.9353V14.9339V14.9324V14.931V14.9296V14.9281V14.9267V14.9252V14.9238V14.9224V14.9209V14.9195V14.9181V14.9166V14.9152V14.9137V14.9123V14.9109V14.9094V14.908V14.9065V14.9051V14.9037V14.9022V14.9008V14.8993V14.8979V14.8965V14.895V14.8936V14.8921V14.8907V14.8893V14.8878V14.8864V14.8849V14.8835V14.882V14.8806V14.8792V14.8777V14.8763V14.8748V14.8734V14.872V14.8705V14.8691V14.8676V14.8662V14.8647V14.8633V14.8618V14.8604V14.859V14.8575V14.8561V14.8546V14.8532V14.8517V14.8503V14.8488V14.8474V14.8459V14.8445V14.8431V14.8416V14.8402V14.8387V14.8373V14.8358V14.8344V14.8329V14.8315V14.83V14.8286V14.8271V14.8257V14.8242V14.8228V14.8213V14.8199V14.8184V14.817V14.8155V14.8141V14.8126V14.8112V14.8097V14.8083V14.8068V14.8054V14.8039V14.8025V14.801V14.7996V14.7981V14.7967V14.7952V14.7938V14.7923V14.7909V14.7894V14.7879V14.7865V14.785V14.7836V14.7821V14.7807V14.7792V14.7778V14.7763V14.7748V14.7734V14.7719V14.7705V14.769V14.7676V14.7661V14.7646V14.7632V14.7617V14.7603V14.7588V14.7573V14.7559V14.7544V14.753V14.7515V14.75V14.7486V14.7471V14.7457V14.7442V14.7427V14.7413V14.7398V14.7383V14.7369V14.7354V14.734V14.7325V14.731V14.7296V14.7281V14.7266V14.7252V14.7237V14.7222V14.7208V14.7193V14.7178V14.7164V14.7149V14.7134V14.712V14.7105V14.709V14.7076V14.7061V14.7046V14.7032V14.7017V14.7002V14.6987V14.6973V14.6958V14.6943V14.6929V14.6914V14.6899V14.6884V14.687V14.6855V14.684C29.7499 12.3915 28.8131 10.1943 27.148 8.57539C25.4831 6.95674 23.2265 6.0486 20.8749 6.0486H20.113H20.1027L20.0924 6.04945C19.7751 6.07568 19.461 5.97808 19.2193 5.77994C18.9779 5.58199 18.8288 5.30043 18.8024 4.99805C18.776 4.69575 18.8739 4.39451 19.0768 4.16062C19.2779 3.92887 19.5659 3.78189 19.8794 3.75346H19.8803H19.8822H19.8842H19.8861H19.888H19.89H19.8919H19.8939H19.8958H19.8978H19.8997H19.9016H19.9036H19.9055H19.9075H19.9094H19.9114H19.9133H19.9152H19.9172H19.9191H19.9211H19.923H19.925H19.9269H19.9289H19.9308H19.9328H19.9347H19.9367H19.9386H19.9406H19.9425H19.9445H19.9464H19.9483H19.9503H19.9522H19.9542H19.9562H19.9581H19.9601H19.962H19.964H19.9659H19.9679H19.9698H19.9718H19.9737H19.9757H19.9776H19.9796H19.9815H19.9835H19.9854H19.9874H19.9894H19.9913H19.9933H19.9952H19.9972H19.9991H20.0011H20.003H20.005H20.007H20.0089H20.0109H20.0128H20.0148H20.0167H20.0187H20.0207H20.0226H20.0246H20.0265H20.0285H20.0305H20.0324H20.0344H20.0363H20.0383H20.0403H20.0422H20.0442H20.0462H20.0481H20.0501H20.052H20.054H20.056H20.0579H20.0599H20.0619H20.0638H20.0658H20.0677H20.0697H20.0717H20.0736H20.0756H20.0776H20.0795H20.0815H20.0835H20.0854H20.0874H20.0894H20.0913H20.0933H20.0953H20.0972H20.0992H20.1012H20.1031H20.1051H20.1071H20.109H20.111H20.113H20.1149H20.1169H20.1189H20.1208H20.1228H20.1248H20.1268H20.1287H20.1307H20.1327H20.1346H20.1366H20.1386H20.1405H20.1425H20.1445H20.1465H20.1484H20.1504H20.1524H20.1543H20.1563H20.1583H20.1603H20.1622H20.1642H20.1662H20.1681H20.1701H20.1721H20.1741H20.176H20.178H20.18H20.182H20.1839H20.1859H20.1879H20.1898H20.1918H20.1938H20.1958H20.1977H20.1997H20.2017H20.2037H20.2056H20.2076H20.2096H20.2116H20.2135H20.2155H20.2175H20.2195H20.2214H20.2234H20.2254H20.2274H20.2294H20.2313H20.2333H20.2353H20.2373H20.2392H20.2412H20.2432H20.2452H20.2471H20.2491H20.2511H20.2531H20.255H20.257H20.259H20.261H20.263H20.2649H20.2669H20.2689H20.2709H20.2728H20.2748H20.2768H20.2788H20.2808H20.2827H20.2847H20.2867H20.2887H20.2906H20.2926H20.2946H20.2966H20.2986H20.3005H20.3025H20.3045H20.3065H20.3085H20.3104H20.3124H20.3144H20.3164H20.3183H20.3203H20.3223H20.3243H20.3263H20.3282H20.3302H20.3322H20.3342H20.3362H20.3381H20.3401H20.3421H20.3441H20.3461H20.348H20.35H20.352H20.354H20.3559H20.3579H20.3599H20.3619H20.3639H20.3658H20.3678H20.3698H20.3718H20.3738H20.3757H20.3777H20.3797H20.3817H20.3837H20.3856H20.3876H20.3896H20.3916H20.3936H20.3955H20.3975H20.3995H20.4015H20.4035H20.4054H20.4074H20.4094H20.4114H20.4133H20.4153H20.4173H20.4193H20.4213H20.4232H20.4252H20.4272H20.4292H20.4312H20.4331H20.4351H20.4371H20.4391H20.4411H20.443H20.445H20.447H20.449H20.4509H20.4529H20.4549H20.4569H20.4589H20.4608H20.4628H20.4648H20.4668H20.4688H20.4707H20.4727H20.4747H20.4767H20.4786H20.4806H20.4826H20.4846H20.4865H20.4885H20.4905H20.4925H20.4945H20.4964H20.4984H20.5004H20.5024H20.5043H20.5063H20.5083H20.5103H20.5122H20.5142H20.5162H20.5182H20.5201H20.5221H20.5241H20.5261H20.528H20.53H20.532H20.534H20.5359H20.5379H20.5399H20.5419H20.5438H20.5458H20.5478H20.5498H20.5517H20.5537H20.5557H20.5577H20.5596H20.5616H20.5636H20.5656H20.5675H20.5695H20.5715H20.5735H20.5754H20.5774H20.5794H20.5813H20.5833H20.5853H20.5873H20.5892H20.5912H20.5932H20.5951H20.5971H20.5991H20.6011H20.603H20.605H20.607H20.6089H20.6109H20.6129H20.6148H20.6168H20.6188H20.6208H20.6227H20.6247H20.6267H20.6286H20.6306H20.6326H20.6345H20.6365H20.6385H20.6404H20.6424H20.6444H20.6463H20.6483H20.6503H20.6522H20.6542H20.6562H20.6581H20.6601H20.6621H20.664H20.666H20.668H20.6699H20.6719H20.6739H20.6758H20.6778H20.6798H20.6817H20.6837H20.6856H20.6876H20.6896H20.6915H20.6935H20.6955H20.6974H20.6994H20.7013H20.7033H20.7053H20.7072H20.7092H20.7111H20.7131H20.7151H20.717H20.719H20.7209H20.7229H20.7249H20.7268H20.7288H20.7307H20.7327H20.7347H20.7366H20.7386H20.7405H20.7425H20.7444H20.7464H20.7484H20.7503H20.7523H20.7542H20.7562H20.7581H20.7601H20.762H20.764H20.7659H20.7679H20.7699H20.7718H20.7738H20.7757H20.7777H20.7796H20.7816H20.7835H20.7855H20.7874H20.7894H20.7913H20.7933H20.7952H20.7972H20.7991H20.8011H20.803H20.805H20.8069H20.8089H20.8108H20.8128H20.8147H20.8167H20.8186H20.8205H20.8225H20.8244H20.8264H20.8283H20.8303H20.8322H20.8342H20.8361H20.838H20.84H20.8419H20.8439H20.8458H20.8478H20.8497H20.8516H20.8536H20.8555H20.8575H20.8594H20.8613H20.8633H20.8652H20.8672H20.8691H20.871H20.873H20.8748C23.8582 3.75713 26.7168 4.91199 28.823 6.96225C30.929 9.01231 32.1105 11.7897 32.1105 14.684V14.6859V14.6878V14.6897V14.6916V14.6934V14.6953V14.6972V14.6991V14.701V14.7029V14.7048V14.7066V14.7085V14.7104V14.7123V14.7142V14.7161V14.718V14.7199V14.7218V14.7236V14.7255V14.7274V14.7293V14.7312V14.7331V14.735V14.7369V14.7388V14.7407V14.7426V14.7444V14.7463V14.7482V14.7501V14.752V14.7539V14.7558V14.7577V14.7596V14.7615V14.7634V14.7653V14.7672V14.7691V14.771V14.7729V14.7748V14.7767V14.7786V14.7805V14.7824V14.7843V14.7862V14.7881V14.79V14.7919V14.7938V14.7957V14.7976V14.7995V14.8014V14.8033V14.8052V14.8071V14.809V14.8109V14.8128V14.8147V14.8166V14.8185V14.8204V14.8223V14.8242V14.8261V14.828V14.8299V14.8318V14.8337V14.8356V14.8375V14.8394V14.8413V14.8432V14.8451V14.847V14.849V14.8509V14.8528V14.8547V14.8566V14.8585V14.8604V14.8623V14.8642V14.8661V14.868V14.8699V14.8718V14.8738V14.8757V14.8776V14.8795V14.8814V14.8833V14.8852V14.8871V14.889V14.8909V14.8929V14.8948V14.8967V14.8986V14.9005V14.9024V14.9043V14.9062V14.9082V14.9101V14.912V14.9139V14.9158V14.9177V14.9196V14.9215V14.9235V14.9254V14.9273V14.9292V14.9311V14.933V14.9349V14.9369V14.9388V14.9407V14.9426V14.9445V14.9464V14.9483V14.9503V14.9522V14.9541V14.956V14.9579V14.9598V14.9618V14.9637V14.9656V14.9675V14.9694V14.9713V14.9733V14.9752V14.9771V14.979V14.9809V14.9829V14.9848V14.9867V14.9886V14.9905V14.9924V14.9944V14.9963V14.9982V15.0001V15.002V15.004V15.0059V15.0078V15.0097V15.0116V15.0136V15.0155V15.0174V15.0193V15.0212V15.0232V15.0251V15.027V15.0289V15.0308V15.0328V15.0347V15.0366V15.0385V15.0405V15.0424V15.0443V15.0462V15.0481V15.0501V15.052V15.0539V15.0558V15.0578V15.0597V15.0616V15.0635V15.0654V15.0674V15.0693V15.0712V15.0731V15.0751V15.077V15.0789V15.0808V15.0827V15.0847V15.0866V15.0885V15.0904V15.0924V15.0943V15.0962V15.0981V15.1001V15.102V15.1039V15.1058V15.1077V15.1097V15.1116V15.1135V15.1154V15.1174V15.1193V15.1212V15.1231V15.1251V15.127V15.1289V15.1308V15.1328V15.1347V15.1366V15.1385V15.1405V15.1424V15.1443V15.1462V15.1482V15.1501V15.152V15.1539V15.1558V15.1578V15.1597V15.1616V15.1635V15.1655V15.1674V15.1693V15.1712V15.1732V15.1751V15.177V15.1789V15.1809V15.1828V15.1847V15.1866V15.1886V15.1905V15.1924V15.1943V15.1963V15.1982V15.2001V15.202V15.204V15.2059V15.2078V15.2097V15.2117V15.2136V15.2155V15.2174V15.2194V15.2213V15.2232V15.2251V15.227V15.229V15.2309V15.2328V15.2347V15.2367V15.2386V15.2405V15.2424V15.2444V15.2463V15.2482V15.2501V15.2521V15.254V15.2559V15.2578V15.2597V15.2617V15.2636V15.2655V15.2674V15.2694V15.2713V15.2732V15.2751V15.2771V15.279V15.2809V15.2828V15.2847V15.2867V15.2886V15.2905V15.2924V15.2944V15.2963V15.2982V15.3001V15.302V15.304V15.3059V15.3078V15.3097V15.3116V15.3136V15.3155V15.3174V15.3193V15.3213V15.3232V15.3251V15.327V15.3289V15.3309V15.3328V15.3347V15.3366V15.3385V15.3405V15.3424V15.3443V15.3462V15.3481V15.3501V15.352V15.3539V15.3558V15.3577V15.3596V15.3616V15.3635V15.3654V15.3673V15.3692V15.3712V15.3731V15.375V15.3769V15.3788V15.3807V15.3827V15.3846V15.3865V15.3884V15.3903V15.3922V15.3942V15.3961V15.398V15.3999V15.4018V15.4037V15.4057V15.4076V15.4095V15.4114V15.4133V15.4152V15.4171V15.4191V15.421V15.4229V15.4248V15.4267V15.4286V15.4305V15.4324V15.4344V15.4363V15.4382V15.4401V15.442V15.4439V15.4458V15.4477V15.4497V15.4516V15.4535V15.4554V15.4573V15.4592V15.4611V15.463V15.4649V15.4669V15.4688V15.4707V15.4726V15.4745V15.4764V15.4783V15.4802V15.4821V15.484V15.4859V15.4879V15.4898V15.4917V15.4936V15.4955V15.4974V15.4993V15.5012V15.5031V15.505V15.5069V15.5088V15.5107V15.5126V15.5145V15.5164V15.5183V15.5202V15.5222V15.5241V15.526V15.5279V15.5298V15.5317V15.5336V15.5355V15.5374V15.5393V15.5412V15.5431V15.545V15.5469V15.5488V15.5507V15.5526V15.5545V15.5564V15.5583V15.5602V15.5621V15.564V15.5659V15.5678V15.5697V15.5716V15.5735V15.5754V15.5773V15.5792V15.5811V15.5829V15.5848V15.5867V15.5886V15.5905V15.5924V15.5943V15.5962V15.5981V15.6V15.6019V15.6038V15.6057V15.6076V15.6095V15.6114V15.6132V15.6151V15.617V15.6189V15.6208V15.6227V15.6246V15.6265V15.6284V15.6303V15.6321V15.634V15.6359V15.6378V15.6397V15.6416V15.6435V15.6454V15.6472V15.6491V15.6501M30.819 16.6841L32.3605 15.6623M32.1105 15.6501V15.651V15.6529V15.6548V15.6567V15.6586V15.6604V15.6623H32.3605M32.1105 15.6501C32.1109 15.6465 32.1113 15.6428 32.1116 15.6392L32.3605 15.6623M29.6062 27.2628H29.6063L29.606 27.2547L29.4769 22.9428C29.4847 22.5625 29.3576 22.192 29.1182 21.8935C28.8774 21.5934 28.5381 21.3849 28.159 21.3019L28.1502 21.2999L28.1412 21.2986C27.7576 21.2434 27.3617 21.1746 26.9959 21.0925L26.9935 21.092C26.2332 20.9291 25.4849 20.7172 24.7534 20.4579L24.5387 20.3818L24.443 20.5886L23.5382 22.5434C23.5381 22.5437 23.538 22.544 23.5378 22.5442C23.4078 22.8191 23.1699 23.0348 22.8742 23.1418L22.8742 23.1417L22.8666 23.1447C22.5778 23.2601 22.2538 23.2607 21.9646 23.1468C17.59 21.1597 14.0749 17.7414 12.0324 13.4913C11.9171 13.2146 11.9178 12.9054 12.0346 12.6291L12.0347 12.6291L12.0378 12.6211C12.1463 12.3376 12.3669 12.1054 12.6537 11.9774L12.6537 11.9774L12.656 11.9764L14.6684 11.054L14.8831 10.9556L14.7971 10.7357C14.5275 10.0465 14.3102 9.33908 14.1468 8.61915L14.1467 8.61877C14.1227 8.51376 14.0974 8.41346 14.0729 8.31667C14.0014 8.03419 13.9374 7.78151 13.9374 7.52846V7.49989L13.931 7.47205C13.8445 7.09882 13.628 6.76776 13.3202 6.53432C13.0133 6.30161 12.6342 6.17985 12.2471 6.18836H7.93829C7.70134 6.18674 7.46653 6.23385 7.24921 6.32682C7.03175 6.41984 6.83648 6.55678 6.67646 6.72904C6.50771 6.90925 6.3818 7.12415 6.30834 7.35842C6.23503 7.59219 6.2159 7.83904 6.25243 8.08104C6.96769 13.3738 9.45986 18.2878 13.3406 22.0608L13.3413 22.0613C17.2186 25.8052 22.2532 28.2053 27.6695 28.8935C27.9153 28.9286 28.1661 28.9103 28.4039 28.8398C28.6423 28.7691 28.862 28.6477 29.0471 28.4839C29.222 28.3303 29.3623 28.1426 29.4588 27.9323C29.5553 27.7218 29.6056 27.4937 29.6062 27.2628ZM24.3452 15.493C24.1233 15.2772 23.9999 14.9861 23.9999 14.684C23.9999 13.8741 23.6689 13.0988 23.0821 12.5283C22.4956 11.958 21.7015 11.6389 20.8749 11.6389C20.5577 11.6389 20.2549 11.5163 20.0327 11.3003C19.8108 11.0845 19.6874 10.7934 19.6874 10.4913C19.6874 10.1893 19.8108 9.89812 20.0327 9.68233C20.2549 9.46631 20.5577 9.34374 20.8749 9.34374C22.3358 9.34374 23.7356 9.90804 24.7665 10.9103C25.7972 11.9124 26.3749 13.27 26.3749 14.684C26.3749 14.9861 26.2516 15.2772 26.0296 15.493C25.8074 15.709 25.5046 15.8316 25.1874 15.8316C24.8702 15.8316 24.5674 15.709 24.3452 15.493Z" fill="#D40000" stroke="white" stroke-width="0.5"/>
</svg>
