<svg width="19" height="15" viewBox="0 0 19 15" fill="none" xmlns="http://www.w3.org/2000/svg">
    <path
        d="M16.15 0.280334H2.85C2.09413 0.280334 1.36922 0.56419 0.834746 1.06946C0.300267 1.57472 0 2.26001 0 2.97456V11.9553C0 12.6699 0.300267 13.3552 0.834746 13.8604C1.36922 14.3657 2.09413 14.6496 2.85 14.6496H16.15C16.9059 14.6496 17.6308 14.3657 18.1653 13.8604C18.6997 13.3552 19 12.6699 19 11.9553V2.97456C19 2.26001 18.6997 1.57472 18.1653 1.06946C17.6308 0.56419 16.9059 0.280334 16.15 0.280334ZM15.7605 2.07649L10.1745 7.35718C10.0862 7.44135 9.98111 7.50817 9.86535 7.55376C9.74958 7.59935 9.62541 7.62283 9.5 7.62283C9.37459 7.62283 9.25042 7.59935 9.13465 7.55376C9.01889 7.50817 8.91381 7.44135 8.8255 7.35718L3.2395 2.07649H15.7605ZM17.1 11.9553C17.1 12.1935 16.9999 12.4219 16.8218 12.5904C16.6436 12.7588 16.402 12.8534 16.15 12.8534H2.85C2.59804 12.8534 2.35641 12.7588 2.17825 12.5904C2.00009 12.4219 1.9 12.1935 1.9 11.9553V3.34278L7.486 8.62347C8.02038 9.12801 8.74475 9.4114 9.5 9.4114C10.2553 9.4114 10.9796 9.12801 11.514 8.62347L17.1 3.34278V11.9553Z"
        fill="white" fill-opacity="0.75" />
</svg>