<svg width="36" height="33" viewBox="0 0 36 33" fill="none" xmlns="http://www.w3.org/2000/svg">
    <path
        d="M33.5634 0H2.87022C2.36716 0 1.88471 0.191223 1.529 0.531601C1.17329 0.87198 0.97345 1.33363 0.97345 1.815V31.185C0.97345 31.4233 1.02251 31.6594 1.11783 31.8796C1.21315 32.0998 1.35287 32.2999 1.529 32.4684C1.70513 32.6369 1.91423 32.7706 2.14436 32.8618C2.37448 32.9531 2.62113 33 2.87022 33H19.3894V20.2125H14.9061V15.2625H19.3894V11.55C19.2965 10.6784 19.404 9.79791 19.7044 8.97029C20.0048 8.14266 20.4908 7.38795 21.1283 6.75908C21.7658 6.13021 22.5393 5.64241 23.3947 5.32989C24.2501 5.01738 25.1665 4.88772 26.0798 4.95C27.4219 4.9421 28.7633 5.00821 30.0975 5.148V9.603H27.3558C25.1831 9.603 24.7693 10.593 24.7693 12.0285V15.213H29.9423L29.2698 20.163H24.7693V33H33.5634C33.8125 33 34.0591 32.9531 34.2893 32.8618C34.5194 32.7706 34.7285 32.6369 34.9046 32.4684C35.0808 32.2999 35.2205 32.0998 35.3158 31.8796C35.4111 31.6594 35.4602 31.4233 35.4602 31.185V1.815C35.4602 1.57665 35.4111 1.34064 35.3158 1.12043C35.2205 0.900224 35.0808 0.70014 34.9046 0.531601C34.7285 0.363063 34.5194 0.229371 34.2893 0.138159C34.0591 0.0469465 33.8125 0 33.5634 0Z"
        fill="#D40000" />
</svg>