<svg width="36" height="37" viewBox="0 0 36 37" fill="none" xmlns="http://www.w3.org/2000/svg">
<rect y="0.637695" width="36" height="36" rx="8" fill="#D40000"/>
<path d="M23 25.0677H19L14.55 28.0277C13.89 28.4677 13 27.9978 13 27.1978V25.0677C10 25.0677 8 23.0677 8 20.0677V14.0677C8 11.0677 10 9.06769 13 9.06769H23C26 9.06769 28 11.0677 28 14.0677V20.0677C28 23.0677 26 25.0677 23 25.0677Z" stroke="white" stroke-width="1.5" stroke-miterlimit="10" stroke-linecap="round" stroke-linejoin="round"/>
<path d="M18 17.9977V17.7877C18 17.1077 18.42 16.7477 18.84 16.4577C19.25 16.1777 19.66 15.8177 19.66 15.1577C19.66 14.2377 18.92 13.4977 18 13.4977C17.08 13.4977 16.34 14.2377 16.34 15.1577" stroke="white" stroke-width="1.5" stroke-linecap="round" stroke-linejoin="round"/>
<path d="M17.9955 20.3877H18.0045" stroke="white" stroke-width="1.5" stroke-linecap="round" stroke-linejoin="round"/>
</svg>
