<svg width="36" height="37" viewBox="0 0 36 37" fill="none" xmlns="http://www.w3.org/2000/svg">
<rect y="0.539551" width="36" height="36" rx="8" fill="#D40000"/>
<path d="M23 24.9696H19L14.55 27.9296C13.89 28.3696 13 27.8996 13 27.0996V24.9696C10 24.9696 8 22.9696 8 19.9696V13.9695C8 10.9695 10 8.96954 13 8.96954H23C26 8.96954 28 10.9695 28 13.9695V19.9696C28 22.9696 26 24.9696 23 24.9696Z" stroke="white" stroke-width="1.5" stroke-miterlimit="10" stroke-linecap="round" stroke-linejoin="round"/>
<path d="M18 17.8995V17.6896C18 17.0096 18.42 16.6496 18.84 16.3596C19.25 16.0796 19.66 15.7196 19.66 15.0596C19.66 14.1396 18.92 13.3995 18 13.3995C17.08 13.3995 16.34 14.1396 16.34 15.0596" stroke="white" stroke-width="1.5" stroke-linecap="round" stroke-linejoin="round"/>
<path d="M17.9955 20.2896H18.0045" stroke="white" stroke-width="1.5" stroke-linecap="round" stroke-linejoin="round"/>
</svg>
