<svg width="34" height="34" viewBox="0 0 34 34" fill="none" xmlns="http://www.w3.org/2000/svg">
<path d="M28.3332 13.6992V13.4583C28.3418 11.0485 27.5772 8.69947 26.1518 6.7564C24.7264 4.81333 22.7153 3.37871 20.4141 2.66335H20.3291C19.1405 2.30101 17.9022 2.12888 16.6599 2.15335C13.7016 2.31569 10.9169 3.60082 8.87388 5.74647C6.83091 7.89212 5.68376 10.7365 5.66656 13.6992C4.8364 13.9912 4.11737 14.5337 3.60873 15.2519C3.10008 15.97 2.8269 16.8283 2.8269 17.7083C2.8269 18.5884 3.10008 19.4467 3.60873 20.1648C4.11737 20.883 4.8364 21.4255 5.66656 21.7175C5.95834 24.5151 7.28002 27.1043 9.37465 28.9816C11.4693 30.8589 14.1872 31.8902 16.9999 31.875H17.3257C20.0457 31.7434 22.631 30.6522 24.6228 28.7953C26.6146 26.9384 27.884 24.4357 28.2057 21.7317C29.0456 21.4562 29.7788 20.9256 30.303 20.2139C30.8272 19.5022 31.1165 18.6447 31.1305 17.7608C31.1446 16.877 30.8826 16.0108 30.3813 15.2828C29.8799 14.5548 29.164 14.0012 28.3332 13.6992ZM17.2549 29.0417C15.2041 29.101 13.2011 28.4166 11.6154 27.1147C10.0298 25.8129 8.96847 23.9814 8.62739 21.9583H25.3016C24.9558 23.8735 23.9727 25.6156 22.5119 26.9015C21.0511 28.1874 19.1985 28.9416 17.2549 29.0417ZM26.9166 19.125H7.08322C6.7075 19.125 6.34716 18.9758 6.08149 18.7101C5.81581 18.4444 5.66656 18.0841 5.66656 17.7083C5.66656 17.3326 5.81581 16.9723 6.08149 16.7066C6.34716 16.4409 6.7075 16.2917 7.08322 16.2917H9.91656C10.2923 16.2917 10.6526 16.1424 10.9183 15.8767C11.184 15.6111 11.3332 15.2507 11.3332 14.875C11.3332 14.4993 11.184 14.139 10.9183 13.8733C10.6526 13.6076 10.2923 13.4583 9.91656 13.4583H8.49989C8.5633 11.9887 8.98335 10.5566 9.72377 9.28551C10.4642 8.01444 11.5028 6.94262 12.7499 6.16251V10.625C12.7499 11.0007 12.8991 11.3611 13.1648 11.6267C13.4305 11.8924 13.7908 12.0417 14.1666 12.0417C14.5423 12.0417 14.9026 11.8924 15.1683 11.6267C15.434 11.3611 15.5832 11.0007 15.5832 10.625V5.08585C15.9677 5.0216 16.3556 4.97904 16.7449 4.95835H16.9999C17.4747 4.96503 17.9482 5.00765 18.4166 5.08585V10.625C18.4166 11.0007 18.5658 11.3611 18.8315 11.6267C19.0972 11.8924 19.4575 12.0417 19.8332 12.0417C20.2089 12.0417 20.5693 11.8924 20.835 11.6267C21.1006 11.3611 21.2499 11.0007 21.2499 10.625V6.12001C21.8508 6.46798 22.4115 6.88133 22.9216 7.35251C23.7383 8.1457 24.3875 9.0949 24.8304 10.1438C25.2733 11.1926 25.501 12.3198 25.4999 13.4583H24.0832C23.7075 13.4583 23.3472 13.6076 23.0815 13.8733C22.8158 14.139 22.6666 14.4993 22.6666 14.875C22.6666 15.2507 22.8158 15.6111 23.0815 15.8767C23.3472 16.1424 23.7075 16.2917 24.0832 16.2917H26.9166C27.2923 16.2917 27.6526 16.4409 27.9183 16.7066C28.184 16.9723 28.3332 17.3326 28.3332 17.7083C28.3332 18.0841 28.184 18.4444 27.9183 18.7101C27.6526 18.9758 27.2923 19.125 26.9166 19.125Z" fill="white"/>
</svg>
