<svg width="36" height="36" viewBox="0 0 36 36" fill="none" xmlns="http://www.w3.org/2000/svg">
<path d="M32.07 8.64C32.0188 8.44846 31.9301 8.26897 31.8091 8.11192C31.6881 7.95486 31.5372 7.82335 31.365 7.725L23.565 3.225C23.3947 3.1252 23.2064 3.06 23.0108 3.03313C22.8153 3.00626 22.6163 3.01825 22.4254 3.06842C22.2345 3.11858 22.0554 3.20594 21.8983 3.32547C21.7412 3.44501 21.6093 3.59437 21.51 3.765L18 9.855L14.49 3.765C14.3908 3.59437 14.2588 3.44501 14.1017 3.32547C13.9447 3.20594 13.7655 3.11858 13.5746 3.06842C13.3837 3.01825 13.1848 3.00626 12.9892 3.03313C12.7937 3.06 12.6053 3.1252 12.435 3.225L4.63502 7.725C4.46287 7.82335 4.31192 7.95486 4.19091 8.11192C4.0699 8.26897 3.98123 8.44846 3.93002 8.64C3.83074 9.02017 3.8846 9.42412 4.08002 9.765L10.08 20.01C9.41064 21.2363 9.04058 22.6035 9.00002 24C8.99645 25.3624 9.30224 26.7079 9.89435 27.9349C10.4864 29.162 11.3494 30.2386 12.4182 31.0835C13.4869 31.9285 14.7335 32.5198 16.0641 32.8129C17.3946 33.106 18.7743 33.0931 20.0992 32.7753C21.424 32.4576 22.6594 31.8432 23.7123 30.9784C24.7651 30.1137 25.6079 29.0212 26.177 27.7834C26.7462 26.5455 27.0269 25.1946 26.998 23.8325C26.969 22.4703 26.6312 21.1326 26.01 19.92L31.86 9.78C31.9689 9.61341 32.0435 9.42682 32.0796 9.2311C32.1156 9.03539 32.1124 8.83445 32.07 8.64ZM7.50002 9.57L12.69 6.57L17.52 15C15.4611 15.1272 13.5102 15.9648 12 17.37L7.50002 9.57ZM18 30C16.4087 30 14.8826 29.3679 13.7574 28.2426C12.6322 27.1174 12 25.5913 12 24C12 22.4087 12.6322 20.8826 13.7574 19.7574C14.8826 18.6321 16.4087 18 18 18C19.5913 18 21.1174 18.6321 22.2427 19.7574C23.3679 20.8826 24 22.4087 24 24C24 25.5913 23.3679 27.1174 22.2427 28.2426C21.1174 29.3679 19.5913 30 18 30ZM24 17.325C23.1856 16.5812 22.2394 15.9961 21.21 15.6L19.74 12.855L23.37 6.57L28.56 9.57L24 17.325Z" fill="white"/>
</svg>
