<svg width="35" height="33" viewBox="0 0 35 33" fill="none" xmlns="http://www.w3.org/2000/svg">
    <path
        d="M17.2434 12.408C16.3976 12.408 15.5708 12.648 14.8675 13.0976C14.1643 13.5473 13.6162 14.1863 13.2925 14.9341C12.9689 15.6818 12.8842 16.5045 13.0492 17.2983C13.2142 18.0921 13.6215 18.8212 14.2195 19.3935C14.8176 19.9658 15.5796 20.3555 16.4091 20.5134C17.2386 20.6713 18.0984 20.5902 18.8799 20.2805C19.6613 19.9708 20.3291 19.4463 20.799 18.7734C21.2689 18.1005 21.5197 17.3093 21.5197 16.5C21.5197 15.9626 21.4091 15.4305 21.1942 14.9341C20.9793 14.4376 20.6643 13.9865 20.2672 13.6065C19.8701 13.2265 19.3987 12.9251 18.8799 12.7195C18.361 12.5138 17.8049 12.408 17.2434 12.408ZM34.366 8.3655C34.3569 7.0913 34.1117 5.82874 33.6418 4.6365C33.2957 3.76408 32.7602 2.9718 32.0706 2.31196C31.381 1.65211 30.5531 1.13968 29.6413 0.8085C28.3954 0.358815 27.0759 0.12418 25.7443 0.1155C23.5199 -1.10641e-07 22.8647 0 17.2434 0C11.622 0 10.9668 -1.10641e-07 8.74238 0.1155C7.41078 0.12418 6.09134 0.358815 4.84538 0.8085C3.93366 1.13968 3.10569 1.65211 2.41611 2.31196C1.72654 2.9718 1.19103 3.76408 0.844925 4.6365C0.374981 5.82874 0.129775 7.0913 0.120703 8.3655C-1.15626e-07 10.494 0 11.121 0 16.5C0 21.879 -1.15626e-07 22.506 0.120703 24.6345C0.139264 25.9132 0.384138 27.1796 0.844925 28.38C1.1895 29.2484 1.72456 30.0361 2.41407 30.69C3.10069 31.3538 3.93043 31.8662 4.84538 32.1915C6.09134 32.6412 7.41078 32.8758 8.74238 32.8845C10.9668 33 11.622 33 17.2434 33C22.8647 33 23.5199 33 25.7443 32.8845C27.0759 32.8758 28.3954 32.6412 29.6413 32.1915C30.5563 31.8662 31.386 31.3538 32.0727 30.69C32.7622 30.0361 33.2972 29.2484 33.6418 28.38C34.1113 27.1819 34.3564 25.914 34.366 24.6345C34.4867 22.506 34.4867 21.879 34.4867 16.5C34.4867 11.121 34.4867 10.494 34.366 8.3655ZM29.9862 21.5655C29.9309 22.5837 29.7038 23.5867 29.3137 24.5355C28.979 25.327 28.4813 26.046 27.8504 26.6497C27.2194 27.2535 26.468 27.7297 25.6409 28.05C24.6399 28.4024 23.5859 28.5975 22.5198 28.6275C21.1576 28.6275 20.7955 28.6275 17.2434 28.6275C13.6912 28.6275 13.3291 28.6275 11.9669 28.6275C10.9008 28.5975 9.8468 28.4024 8.84585 28.05C7.99075 27.7459 7.21855 27.2608 6.58696 26.631C5.96218 26.0391 5.47967 25.324 5.17301 24.5355C4.80324 23.5787 4.60502 22.569 4.58673 21.549C4.58673 20.2455 4.58673 19.899 4.58673 16.5C4.58673 13.101 4.58673 12.7545 4.58673 11.451C4.60502 10.431 4.80324 9.42131 5.17301 8.4645C5.49077 7.64627 5.99771 6.90736 6.65594 6.303C7.27727 5.70838 8.02379 5.24715 8.84585 4.95C9.8468 4.59757 10.9008 4.40255 11.9669 4.3725C13.3291 4.3725 13.6912 4.3725 17.2434 4.3725C20.7955 4.3725 21.1576 4.3725 22.5198 4.3725C23.5859 4.40255 24.6399 4.59757 25.6409 4.95C26.496 5.25406 27.2682 5.73915 27.8998 6.369C28.5245 6.96094 29.0071 7.67602 29.3137 8.4645C29.682 9.42231 29.8858 10.4309 29.9172 11.451C29.9172 12.7545 29.9172 13.101 29.9172 16.5C29.9172 19.899 30.0379 20.2455 29.9862 21.549V21.5655ZM27.2273 9.2895C27.022 8.75652 26.6983 8.27251 26.2785 7.87085C25.8588 7.46919 25.3529 7.15945 24.796 6.963C24.0312 6.70933 23.2257 6.58645 22.4164 6.6C21.0714 6.6 20.692 6.6 17.2434 6.6C13.7947 6.6 13.4153 6.6 12.0704 6.6C11.2569 6.60761 10.4513 6.75285 9.69077 7.029C9.14231 7.21653 8.64184 7.51363 8.22264 7.90053C7.80344 8.28744 7.4751 8.75529 7.25946 9.273C7.00904 10.0079 6.8867 10.7771 6.89735 11.55C6.89735 12.837 6.89735 13.2 6.89735 16.5C6.89735 19.8 6.89735 20.163 6.89735 21.45C6.91444 22.2275 7.06593 22.9969 7.34567 23.727C7.55098 24.26 7.87467 24.744 8.29443 25.1456C8.71418 25.5473 9.22 25.857 9.77699 26.0535C10.5127 26.3124 11.2869 26.4572 12.0704 26.4825C13.4153 26.4825 13.7947 26.4825 17.2434 26.4825C20.692 26.4825 21.0714 26.4825 22.4164 26.4825C23.2298 26.4749 24.0354 26.3297 24.796 26.0535C25.3529 25.857 25.8588 25.5473 26.2785 25.1456C26.6983 24.744 27.022 24.26 27.2273 23.727C27.5159 22.9992 27.6676 22.2284 27.6756 21.45C27.6756 20.163 27.6756 19.8 27.6756 16.5C27.6756 13.2 27.6756 12.837 27.6756 11.55C27.6761 10.7709 27.524 9.99854 27.2273 9.273V9.2895ZM17.2434 22.803C16.3792 22.803 15.5235 22.6399 14.7252 22.3229C13.927 22.0059 13.202 21.5414 12.5918 20.9559C11.9815 20.3704 11.4979 19.6754 11.1688 18.9108C10.8396 18.1462 10.6714 17.3269 10.6736 16.5C10.6736 15.2527 11.0604 14.0334 11.785 12.9965C12.5095 11.9597 13.5393 11.1518 14.7439 10.6752C15.9485 10.1987 17.2738 10.0748 18.552 10.3193C19.8302 10.5639 21.0039 11.1658 21.9244 12.049C22.8449 12.9321 23.4709 14.0567 23.7231 15.2805C23.9753 16.5042 23.8424 17.7721 23.3412 18.9235C22.84 20.0749 21.9931 21.0582 20.9076 21.7488C19.8221 22.4394 18.5469 22.8063 17.2434 22.803ZM24.1407 11.4345C23.7595 11.3959 23.4068 11.2237 23.1504 10.951C22.894 10.6783 22.7522 10.3245 22.7522 9.95775C22.7522 9.59097 22.894 9.23716 23.1504 8.9645C23.4068 8.69184 23.7595 8.51961 24.1407 8.481C24.5219 8.51961 24.8746 8.69184 25.131 8.9645C25.3874 9.23716 25.5293 9.59097 25.5293 9.95775C25.5293 10.3245 25.3874 10.6783 25.131 10.951C24.8746 11.2237 24.5219 11.3959 24.1407 11.4345Z"
        fill="#D40000" />
</svg>