<svg width="17" height="20" viewBox="0 0 17 20" fill="none" xmlns="http://www.w3.org/2000/svg">
    <path
        d="M14.5193 2.6502C12.9243 1.13045 10.7609 0.276672 8.50521 0.276672C6.24948 0.276672 4.08615 1.13045 2.49112 2.6502C0.896081 4.16994 1.68064e-08 6.23115 0 8.38039C-1.68064e-08 10.5296 0.896081 12.5908 2.49112 14.1106L7.77349 19.1531C7.86667 19.2427 7.97753 19.3137 8.09968 19.3622C8.22182 19.4107 8.35284 19.4356 8.48516 19.4356C8.61748 19.4356 8.74849 19.4107 8.87064 19.3622C8.99278 19.3137 9.10364 19.2427 9.19683 19.1531L14.5193 14.0628C16.1077 12.5494 17 10.4968 17 8.35651C17 6.21623 16.1077 4.16361 14.5193 2.6502ZM13.0859 12.6971L8.50521 17.0807L3.92447 12.6971C3.0195 11.8341 2.40339 10.7348 2.15402 9.53816C1.90466 8.34155 2.03323 7.10136 2.5235 5.97436C3.01376 4.84736 3.8437 3.88414 4.90841 3.20648C5.97312 2.52882 7.22479 2.16712 8.50521 2.16712C9.78562 2.16712 11.0373 2.52882 12.102 3.20648C13.1667 3.88414 13.9966 4.84736 14.4869 5.97436C14.9772 7.10136 15.1058 8.34155 14.8564 9.53816C14.607 10.7348 13.9909 11.8341 13.0859 12.6971ZM5.49816 5.44844C4.68898 6.2218 4.2346 7.26927 4.2346 8.36129C4.2346 9.4533 4.68898 10.5008 5.49816 11.2741C6.09933 11.8479 6.86495 12.2397 7.69897 12.4005C8.53298 12.5613 9.39825 12.4838 10.1862 12.1777C10.9742 11.8717 11.6498 11.3508 12.1282 10.6803C12.6066 10.0099 12.8666 9.21974 12.8754 8.40904C12.88 7.86773 12.7705 7.33105 12.5536 6.83074C12.3367 6.33043 12.0167 5.87663 11.6125 5.49619C11.2152 5.109 10.7415 4.80049 10.2186 4.5884C9.69576 4.37631 9.13402 4.26484 8.56575 4.26041C7.99748 4.25597 7.43389 4.35865 6.90743 4.56254C6.38097 4.76643 5.90203 5.06751 5.49816 5.44844ZM10.1992 9.91799C9.81933 10.2854 9.31732 10.5157 8.77897 10.5696C8.24063 10.6234 7.69938 10.4973 7.24777 10.213C6.79615 9.9287 6.46222 9.50373 6.30305 9.01079C6.14389 8.51784 6.16938 7.98752 6.37517 7.5105C6.58096 7.03348 6.95427 6.63938 7.43127 6.39558C7.90828 6.15178 8.45935 6.07342 8.99028 6.1739C9.5212 6.27437 9.99901 6.54745 10.342 6.94644C10.685 7.34542 10.8719 7.84554 10.8707 8.36129C10.8562 8.9508 10.5966 9.51069 10.1491 9.91799H10.1992Z"
        fill="white" fill-opacity="0.75" />
</svg>