<svg width="19" height="19" viewBox="0 0 19 19" fill="none" xmlns="http://www.w3.org/2000/svg">
    <path
        d="M16.645 10.344C16.4353 10.344 16.216 10.2799 16.0062 10.2341C15.5815 10.1442 15.164 10.0248 14.7572 9.87689C14.3149 9.7223 13.8287 9.73033 13.3922 9.89943C12.9557 10.0685 12.5997 10.3868 12.3927 10.7929L12.183 11.2051C11.2544 10.7088 10.401 10.0924 9.64689 9.3731C8.89823 8.64857 8.25663 7.82874 7.74005 6.93656L8.14048 6.68009C8.5632 6.48124 8.89443 6.13922 9.07045 5.71985C9.24646 5.30047 9.25482 4.83337 9.09391 4.40843C8.94252 4.01677 8.81831 3.61591 8.72207 3.20848C8.6744 3.00697 8.63626 2.79629 8.60766 2.58561C8.49188 1.94041 8.14013 1.35612 7.61574 0.937963C7.09135 0.519812 6.4288 0.295277 5.74739 0.304795H2.88712C2.47623 0.301088 2.06933 0.382483 1.69411 0.543438C1.3189 0.704393 0.984197 0.94113 0.712777 1.23753C0.441356 1.53393 0.239597 1.88304 0.121233 2.26109C0.00286856 2.63914 -0.0293211 3.03725 0.0268552 3.42832C0.53478 7.26575 2.35895 10.8312 5.21124 13.5616C8.06352 16.2919 11.7813 18.0315 15.7774 18.5055H16.1397C16.8428 18.5065 17.5216 18.2587 18.0465 17.8094C18.3482 17.5502 18.5891 17.2325 18.7535 16.8772C18.9178 16.5219 19.0018 16.1372 19 15.7484V13.0004C18.9883 12.3642 18.7471 11.7515 18.3176 11.2671C17.8882 10.7826 17.297 10.4564 16.645 10.344ZM17.1217 15.84C17.1216 15.97 17.0926 16.0986 17.0367 16.217C16.9808 16.3355 16.8993 16.4411 16.7976 16.527C16.6913 16.6158 16.5668 16.6822 16.4321 16.7216C16.2974 16.7611 16.1555 16.7728 16.0158 16.756C12.4451 16.3161 9.12845 14.7467 6.58899 12.2954C4.04953 9.844 2.43178 6.65017 1.99091 3.21764C1.97573 3.08347 1.98903 2.94773 2.03 2.81863C2.07097 2.68953 2.13875 2.56975 2.22926 2.46653C2.31861 2.36882 2.42859 2.29052 2.55188 2.23682C2.67517 2.18312 2.80896 2.15526 2.94433 2.1551H5.8046C6.02631 2.15036 6.24281 2.22002 6.41683 2.3521C6.59085 2.48418 6.7115 2.6704 6.75802 2.87873C6.79616 3.1291 6.84383 3.37642 6.90103 3.62068C7.01117 4.10354 7.15775 4.57805 7.33961 5.04046L6.00482 5.63586C5.89069 5.68616 5.78803 5.75764 5.70273 5.84617C5.61743 5.93469 5.55118 6.03854 5.50777 6.15174C5.46436 6.26494 5.44465 6.38526 5.44978 6.50579C5.4549 6.62633 5.48476 6.74471 5.53764 6.85412C6.90981 9.6779 9.27243 11.9478 12.2116 13.2661C12.4437 13.3577 12.7041 13.3577 12.9362 13.2661C13.0551 13.2252 13.1644 13.162 13.2577 13.0803C13.351 12.9985 13.4264 12.8998 13.4797 12.7897L14.0708 11.5074C14.5637 11.6767 15.0667 11.8174 15.5772 11.9287C15.8314 11.9837 16.0889 12.0295 16.3495 12.0661C16.5663 12.1108 16.7601 12.2267 16.8976 12.3939C17.0351 12.5611 17.1076 12.7691 17.1027 12.9821L17.1217 15.84Z"
        fill="white" fill-opacity="0.75" />
</svg>