<svg width="35" height="29" viewBox="0 0 35 29" fill="none" xmlns="http://www.w3.org/2000/svg">
    <path
        d="M34.9734 3.81236C33.6773 4.37539 32.3066 4.74759 30.904 4.91738C32.3838 4.03219 33.4927 2.63962 34.025 0.998005C32.6344 1.82688 31.1122 2.41087 29.5245 2.7246C28.4633 1.57222 27.05 0.805138 25.5065 0.543654C23.9629 0.28217 22.3764 0.541076 20.9956 1.27977C19.6148 2.01846 18.518 3.19515 17.877 4.6253C17.2361 6.05545 17.0874 7.65816 17.4542 9.18207C14.6425 9.03967 11.8922 8.30661 9.38195 7.0305C6.87168 5.75438 4.6576 3.96377 2.88352 1.77497C2.26127 2.86302 1.93431 4.09521 1.93514 5.34903C1.93293 6.51341 2.2183 7.66028 2.76584 8.68751C3.31339 9.71475 4.10611 10.5905 5.07343 11.2367C3.94912 11.2061 2.84884 10.904 1.86616 10.3562V10.4425C1.87459 12.0739 2.44553 13.6524 3.48241 14.9109C4.51929 16.1693 5.95845 17.0306 7.55647 17.3489C6.94133 17.5363 6.30267 17.6352 5.6597 17.6424C5.21463 17.6372 4.77067 17.5968 4.33196 17.5215C4.78703 18.9249 5.66767 20.1514 6.85135 21.0303C8.03502 21.9091 9.46286 22.3967 10.9362 22.4251C8.44831 24.3852 5.37671 25.455 2.21103 25.4639C1.63465 25.4658 1.05872 25.4312 0.486694 25.3603C3.71884 27.4499 7.48545 28.5592 11.3328 28.5545C13.9877 28.5821 16.6215 28.0797 19.0804 27.0767C21.5393 26.0736 23.7739 24.59 25.6537 22.7125C27.5336 20.8351 29.0209 18.6013 30.029 16.1418C31.037 13.6823 31.5455 11.0463 31.5247 8.38784C31.5247 8.09432 31.5247 7.78353 31.5247 7.47274C32.8778 6.46236 34.0448 5.22372 34.9734 3.81236Z"
        fill="#D40000" />
</svg>