<svg width="35" height="33" viewBox="0 0 35 33" fill="none" xmlns="http://www.w3.org/2000/svg">
    <path
        d="M34.9469 7.5075C34.9276 6.79564 34.87 6.08521 34.7745 5.379C34.6457 4.76046 34.4312 4.16115 34.1365 3.597C33.8283 2.98502 33.4144 2.42719 32.9122 1.947C32.4054 1.47214 31.8235 1.07677 31.1879 0.7755C30.5975 0.499033 29.9712 0.299266 29.3256 0.1815C28.5946 0.076724 27.8574 0.0161042 27.1184 0H8.30594C7.56201 0.0185401 6.81957 0.0736124 6.08154 0.165C5.43513 0.288203 4.80882 0.49352 4.21926 0.7755C3.57971 1.07042 2.99675 1.46647 2.49492 1.947C1.99867 2.43195 1.58549 2.9888 1.27064 3.597C0.981721 4.1619 0.772954 4.7612 0.649882 5.379C0.540386 6.07849 0.477035 6.78389 0.460205 7.491C0.460205 7.8045 0.460205 8.25 0.460205 8.382V24.618C0.460205 24.7995 0.460205 25.1955 0.460205 25.4925C0.47958 26.2044 0.537134 26.9148 0.632639 27.621C0.761392 28.2395 0.97596 28.8389 1.27064 29.403C1.57885 30.015 1.99275 30.5728 2.49492 31.053C3.00172 31.5279 3.58366 31.9232 4.21926 32.2245C4.80961 32.501 5.43591 32.7007 6.08154 32.8185C6.81255 32.9233 7.54972 32.9839 8.28869 33H27.1012C27.8451 32.9815 28.5876 32.9264 29.3256 32.835C29.972 32.7118 30.5983 32.5065 31.1879 32.2245C31.8274 31.9296 32.4104 31.5335 32.9122 31.053C33.4085 30.568 33.8216 30.0112 34.1365 29.403C34.4254 28.8381 34.6342 28.2388 34.7573 27.621C34.8667 26.9215 34.9301 26.2161 34.9469 25.509C34.9469 25.1955 34.9469 24.7995 34.9469 24.618V8.382C34.9469 8.25 34.9469 7.8045 34.9469 7.5075ZM18.1002 28.05C16.0293 28.0402 13.9948 27.5294 12.1857 26.565L5.63321 28.215L7.35755 22.077C6.24555 20.2891 5.65043 18.2505 5.63321 16.17C5.64008 13.8318 6.36985 11.5479 7.73063 9.60582C9.0914 7.66375 11.0223 6.15043 13.2802 5.25643C15.538 4.36244 18.0219 4.12776 20.4189 4.58195C22.8158 5.03614 25.0188 6.15889 26.7502 7.8088C28.4816 9.4587 29.6641 11.562 30.1487 13.8537C30.6333 16.1454 30.3984 18.5232 29.4735 20.6874C28.5486 22.8516 26.9752 24.7056 24.9513 26.0157C22.9274 27.3259 20.5436 28.0337 18.1002 28.05ZM18.1002 6.3855C16.272 6.40552 14.4821 6.88872 12.9126 7.78592C11.3431 8.68311 10.0501 9.96225 9.16517 11.4931C8.28027 13.024 7.8351 14.7519 7.875 16.5009C7.91489 18.2499 8.43841 19.9575 9.39227 21.45L9.63367 21.8295L8.59907 25.443L12.5306 24.42L12.9099 24.6345C14.4783 25.5185 16.2627 25.9909 18.0829 26.004C20.8269 26.004 23.4584 24.961 25.3987 23.1044C27.3389 21.2477 28.4289 18.7296 28.4289 16.104C28.4289 13.4784 27.3389 10.9603 25.3987 9.10364C23.4584 7.24703 20.8269 6.204 18.0829 6.204L18.1002 6.3855ZM24.1353 20.4435C23.9095 20.804 23.6071 21.1151 23.2477 21.3567C22.8883 21.5982 22.4799 21.765 22.0489 21.846C21.4049 21.9586 20.7419 21.919 20.1176 21.7305C19.5302 21.5548 18.9544 21.3454 18.3933 21.1035C16.2616 20.0799 14.4436 18.545 13.1168 16.6485C12.3959 15.7698 11.9584 14.709 11.8581 13.596C11.8478 13.1337 11.9392 12.6744 12.1263 12.248C12.3135 11.8217 12.5922 11.4377 12.9444 11.121C13.0481 11.0084 13.1754 10.918 13.318 10.8555C13.4606 10.7929 13.6153 10.7597 13.7721 10.758H14.2549C14.4446 10.758 14.7032 10.758 14.9446 11.2695C15.186 11.781 15.824 13.3155 15.9103 13.464C15.9526 13.5432 15.9747 13.6308 15.9747 13.7197C15.9747 13.8087 15.9526 13.8963 15.9103 13.9755C15.834 14.1548 15.7293 14.3218 15.5999 14.4705C15.4447 14.652 15.2723 14.8665 15.1343 14.9985C14.9964 15.1305 14.8239 15.2955 14.9964 15.5925C15.4655 16.3502 16.0463 17.0392 16.7207 17.6385C17.4551 18.2595 18.2948 18.7561 19.2037 19.107C19.5141 19.2555 19.7038 19.239 19.8762 19.107C20.0487 18.975 20.6522 18.249 20.8591 17.952C21.066 17.655 21.2729 17.7045 21.5488 17.8035C21.8247 17.9025 23.3594 18.612 23.6698 18.7605C23.9802 18.909 24.1698 18.975 24.256 19.107C24.3308 19.5388 24.2893 19.9818 24.1353 20.394V20.4435Z"
        fill="#D40000" />
</svg>