<svg width="97" height="97" viewBox="0 0 97 97" fill="none" xmlns="http://www.w3.org/2000/svg">
<path d="M83.7234 35.5262V35.7016L83.7831 35.8666C86.739 44.029 86.739 52.971 83.7831 61.1334L83.7234 61.2984V61.4738V61.475V61.4761V61.4772V61.4783V61.4794V61.4805V61.4817V61.4827V61.4838V61.4849V61.486V61.4871V61.4882V61.4885C81.0632 68.6543 76.2842 74.84 70.0216 79.2198C63.7109 83.6333 56.1983 86 48.5 86C40.8017 86 33.2891 83.6333 26.9784 79.2198C20.7158 74.84 15.9368 68.6543 13.2766 61.4885V61.4883V61.4881V61.4879V61.4877V61.4875V61.4874V61.4872V61.487V61.4868V61.4866V61.4864V61.4862V61.4861V61.4859V61.4857V61.4855V61.4854V61.4852V61.485V61.4848V61.4847V61.4845V61.4843V61.4842V61.484V61.4839V61.4837V61.4836V61.4834V61.4832V61.4831V61.483V61.4828V61.4827V61.4825V61.4824V61.4822V61.4821V61.482V61.4818V61.4817V61.4816V61.4814V61.4813V61.4812V61.481V61.4809V61.4808V61.4807V61.4805V61.4804V61.4803V61.4802V61.4801V61.48V61.4798V61.4797V61.4796V61.4795V61.4794V61.4793V61.4792V61.4791V61.479V61.4789V61.4788V61.4787V61.4786V61.4785V61.4784V61.4783V61.4782V61.4781V61.4781V61.478V61.4779V61.4778V61.4777V61.4776V61.4775V61.4775V61.4774V61.4773V61.4772V61.4771V61.4771V61.477V61.4769V61.4769V61.4768V61.4767V61.4767V61.4766V61.4765V61.4765V61.4764V61.4763V61.4763V61.4762V61.4761V61.4761V61.476V61.476V61.4759V61.4759V61.4758V61.4758V61.4757V61.4757V61.4756V61.4756V61.4755V61.4755V61.4754V61.4754V61.4753V61.4753V61.4752V61.4752V61.4752V61.4751V61.4751V61.475V61.475V61.475V61.4749V61.4749V61.4749V61.4748V61.4748V61.4748V61.4747V61.4747V61.4747V61.4746V61.4746V61.4746V61.4745V61.4744V61.4744V61.4744V61.4743V61.4743V61.4742V61.4742V61.4742V61.4741V61.4741V61.4741V61.474V61.474V61.474V61.4739V61.4739V61.4738V61.2984L13.2169 61.1334C10.261 52.971 10.261 44.029 13.2169 35.8666L13.2766 35.7016V35.5262V35.525V35.5239V35.5228V35.5217V35.5206V35.5194V35.5183V35.5172V35.5161V35.5151V35.514V35.5129V35.5118V35.5115C15.9368 28.3457 20.7158 22.16 26.9784 17.7801C33.2891 13.3667 40.8017 11 48.5 11C56.1983 11 63.7109 13.3667 70.0216 17.7801C76.2842 22.16 81.0632 28.3456 83.7234 35.5115V35.5117V35.5119V35.5121V35.5123V35.5124V35.5126V35.5128V35.513V35.5132V35.5134V35.5136V35.5138V35.5139V35.5141V35.5143V35.5145V35.5146V35.5148V35.515V35.5152V35.5153V35.5155V35.5157V35.5158V35.516V35.5161V35.5163V35.5164V35.5166V35.5167V35.5169V35.517V35.5172V35.5173V35.5175V35.5176V35.5178V35.5179V35.518V35.5182V35.5183V35.5184V35.5186V35.5187V35.5188V35.519V35.5191V35.5192V35.5193V35.5195V35.5196V35.5197V35.5198V35.5199V35.52V35.5202V35.5203V35.5204V35.5205V35.5206V35.5207V35.5208V35.5209V35.521V35.5211V35.5212V35.5213V35.5214V35.5215V35.5216V35.5217V35.5218V35.5219V35.5219V35.522V35.5221V35.5222V35.5223V35.5224V35.5225V35.5225V35.5226V35.5227V35.5228V35.5228V35.5229V35.523V35.5231V35.5231V35.5232V35.5233V35.5233V35.5234V35.5235V35.5235V35.5236V35.5237V35.5237V35.5238V35.5238V35.5239V35.524V35.5241V35.5242V35.5243V35.5244V35.5245V35.5246V35.5247V35.5248V35.5249V35.525V35.525V35.5251V35.5252V35.5252V35.5253V35.5254V35.5254V35.5255V35.5256V35.5257V35.5257V35.5258V35.5259V35.5259V35.526V35.5261V35.5262ZM17.5978 56.4781L17.7946 57.2225H18.5646H25.7398H26.8673L26.7327 56.1031C26.1251 51.0526 26.1251 45.9474 26.7327 40.8969L26.8673 39.7775H25.7398H18.5646H17.7946L17.5978 40.5219C16.2158 45.7507 16.2158 51.2493 17.5978 56.4781ZM21.7279 62.9451H19.9845L20.8647 64.4499C23.2522 68.5321 26.5171 72.0315 30.4229 74.6947L31.8712 73.4028C30.2485 70.3194 28.9819 67.0611 28.0957 63.6908L27.8996 62.9451H27.1286H21.7279ZM27.1286 34.0549H27.9074L28.0981 33.2998C28.9482 29.9343 30.1768 26.6761 31.7604 23.5878L30.3009 22.3096C26.4385 24.9863 23.2153 28.4848 20.8622 32.5544L19.9945 34.0549H21.7279H27.1286ZM43.9732 79.0377L45.5652 80.207V78.2317V63.9451V62.9451H44.5652H35.1911H33.9373L34.2161 64.1675C35.5779 70.1364 39.0414 75.4152 43.9732 79.0377ZM44.5652 57.2225H45.5652V56.2225V40.7775V39.7775H44.5652H33.5323H32.663L32.542 40.6383C31.8092 45.8538 31.8092 51.1462 32.542 56.3617L32.663 57.2225H33.5323H44.5652ZM44.5652 34.0549H45.5652V33.0549V18.7683V16.793L43.9732 17.9623C39.0414 21.5848 35.5779 26.8636 34.2161 32.8325L33.9373 34.0549H35.1911H44.5652ZM75.1178 34.0549H76.8612L75.981 32.5501C73.5935 28.4679 70.3286 24.9685 66.4228 22.3053L64.9745 23.5972C66.5971 26.6806 67.8638 29.9389 68.75 33.3092L68.9461 34.0549H69.7171H75.1178ZM52.8725 17.9623L51.2805 16.793V18.7683V33.0549V34.0549H52.2805H61.6546H62.9084L62.6296 32.8325C61.2678 26.8636 57.8043 21.5848 52.8725 17.9623ZM51.2805 78.2317V80.207L52.8725 79.0377C57.8043 75.4152 61.2678 70.1364 62.6296 64.1675L62.9084 62.9451H61.6546H52.2805H51.2805V63.9451V78.2317ZM63.3134 57.2225H64.1827L64.3037 56.3617C65.0365 51.1462 65.0365 45.8538 64.3037 40.6383L64.1827 39.7775H63.3134H52.2805H51.2805V40.7775V56.2225V57.2225H52.2805H63.3134ZM65.0902 73.4028L66.5385 74.6947C70.4443 72.0315 73.7093 68.5321 76.0968 64.4499L76.9769 62.9451H75.2336H69.8328H69.0618L68.8657 63.6908C67.9795 67.0611 66.7129 70.3194 65.0902 73.4028ZM78.2811 57.2225H79.0511L79.2479 56.4781C80.6299 51.2493 80.6299 45.7507 79.2479 40.5219L79.0511 39.7775H78.2811H71.1059H69.9765L70.1132 40.8986C70.4208 43.4201 70.573 45.9581 70.5688 48.4984L70.5688 48.5021C70.5741 51.0421 70.422 53.5799 70.1133 56.101L69.9759 57.2225H71.1059H78.2811Z" fill="white" stroke="#D40000" stroke-width="2"/>
</svg>
