<svg width="92" height="90" viewBox="0 0 92 90" fill="none" xmlns="http://www.w3.org/2000/svg">
<path d="M64.0018 31.5L64.0032 31.5C64.7143 31.4955 65.4173 31.6765 66.0517 32.0295C66.6863 32.3826 67.2344 32.8979 67.6459 33.5338C68.0575 34.1698 68.3192 34.9059 68.4061 35.6786C68.4931 36.4512 68.4023 37.2345 68.1425 37.9596C67.8827 38.6847 67.4626 39.3277 66.9215 39.8345C66.3806 40.3412 65.7351 40.6964 65.0421 40.8728C64.3494 41.049 63.6273 41.0419 62.9376 40.852C62.2476 40.662 61.6081 40.2939 61.0758 39.7765L60.7273 39.4377L60.3788 39.7765C59.7449 40.3926 58.9614 40.7949 58.125 40.9398C57.2889 41.0846 56.4306 40.967 55.653 40.5991C54.8751 40.231 54.2086 39.6267 53.7385 38.8545C53.2683 38.0821 53.0163 37.1772 53.0163 36.25C53.0163 35.3228 53.2683 34.4179 53.7385 33.6455C54.2086 32.8733 54.8751 32.269 55.653 31.9009C56.4306 31.533 57.2889 31.4154 58.125 31.5602C58.9614 31.7051 59.7449 32.1074 60.3788 32.7235L60.7282 33.0632L61.0767 32.7226C61.8815 31.9362 62.9248 31.5039 64.0018 31.5ZM16.5455 55H16.0455V55.5V69.5C16.0455 70.5504 16.4353 71.5641 17.1388 72.3164C17.8433 73.0698 18.8063 73.5 19.8182 73.5H52.5455C53.5573 73.5 54.5203 73.0698 55.2248 72.3164C55.9283 71.564 56.3182 70.5504 56.3182 69.5V66C56.3182 65.1939 56.6179 64.4271 57.142 63.8666C57.6649 63.3073 58.3668 63 59.0909 63C59.815 63 60.5169 63.3073 61.0399 63.8666C61.5639 64.427 61.8636 65.1939 61.8636 66V69.5C61.8636 72.1626 60.8743 74.7099 59.1227 76.5831C57.3723 78.4552 55.0055 79.5 52.5455 79.5H19.8182C17.3581 79.5 14.9914 78.4552 13.2409 76.5831C11.4893 74.7099 10.5 72.1626 10.5 69.5V45C10.5 42.3374 11.4893 39.7901 13.2409 37.9169C14.9914 36.0448 17.3581 35 19.8182 35C20.5423 35 21.2442 35.3073 21.7671 35.8666C22.2912 36.4271 22.5909 37.1939 22.5909 38C22.5909 38.8061 22.2912 39.5729 21.7671 40.1334C21.2442 40.6927 20.5423 41 19.8182 41C18.8063 41 17.8433 41.4302 17.1388 42.1836C16.4353 42.936 16.0455 43.9496 16.0455 45V48.5V49H16.5455H19.8182C20.5423 49 21.2442 49.3073 21.7671 49.8666C22.2912 50.4271 22.5909 51.1939 22.5909 52C22.5909 52.8061 22.2912 53.5729 21.7671 54.1334C21.2442 54.6927 20.5423 55 19.8182 55H16.5455ZM39.4545 10.5H72.1818C74.6419 10.5 77.0086 11.5448 78.7591 13.4169C80.5107 15.2901 81.5 17.8374 81.5 20.5V45C81.5 47.6626 80.5107 50.2099 78.7591 52.0831C77.0086 53.9552 74.6419 55 72.1818 55H39.4545C36.9945 55 34.6277 53.9552 32.8773 52.0831C31.1257 50.2099 30.1364 47.6626 30.1364 45V20.5C30.1364 17.8374 31.1257 15.2901 32.8773 13.4169C34.6277 11.5448 36.9945 10.5 39.4545 10.5ZM74.8612 47.8164C75.5647 47.064 75.9545 46.0504 75.9545 45V20.5C75.9545 19.4496 75.5647 18.436 74.8612 17.6836C74.1567 16.9302 73.1937 16.5 72.1818 16.5H39.4545C38.4427 16.5 37.4797 16.9302 36.7752 17.6836C36.0717 18.436 35.6818 19.4496 35.6818 20.5V45C35.6818 46.0504 36.0717 47.064 36.7752 47.8164C37.4797 48.5698 38.4427 49 39.4545 49H72.1818C73.1937 49 74.1567 48.5698 74.8612 47.8164ZM29.6364 65.5H26.3636C25.6395 65.5 24.9377 65.1927 24.4147 64.6334C23.8906 64.0729 23.5909 63.3061 23.5909 62.5C23.5909 61.6939 23.8906 60.9271 24.4147 60.3666C24.9377 59.8073 25.6395 59.5 26.3636 59.5H29.6364C30.3605 59.5 31.0623 59.8073 31.5853 60.3666C32.1094 60.9271 32.4091 61.6939 32.4091 62.5C32.4091 63.3061 32.1094 64.0729 31.5853 64.6334C31.0623 65.1927 30.3605 65.5 29.6364 65.5Z" fill="white" stroke="#D40000"/>
</svg>
