<svg width="92" height="92" viewBox="0 0 92 92" fill="none" xmlns="http://www.w3.org/2000/svg">
<path d="M74.1855 24.3951L74.1785 24.4021L62.5201 36.058C62.5193 36.0588 62.5186 36.0596 62.5178 36.0604C62.1576 36.4284 61.9039 36.8872 61.7838 37.3879C61.6638 37.8877 61.6813 38.4105 61.8344 38.9011L69.6079 62.2168L69.7545 62.6567L69.4267 62.9844L66.1868 66.2236L65.4216 66.9887L64.9738 66.0036L56.5141 47.3963L56.5141 47.3962C56.324 46.9778 56.0355 46.6116 55.6733 46.3288C55.3112 46.0462 54.8862 45.8552 54.4343 45.7722L74.1855 24.3951ZM74.1855 24.3951L74.1924 24.3878M74.1855 24.3951L74.1924 24.3878M74.1924 24.3878C74.6112 23.9462 74.9374 23.4254 75.1519 22.8559C75.3636 22.294 75.4623 21.6959 75.4425 21.0959C75.4552 20.4859 75.3394 19.8799 75.1025 19.3174C74.8649 18.7532 74.5108 18.2455 74.0635 17.8276C73.6375 17.3956 73.1303 17.052 72.571 16.8167L72.2802 17.508L72.571 16.8167C72.006 16.5791 71.3993 16.4566 70.7863 16.4566C70.1734 16.4566 69.5666 16.5791 69.0016 16.8167C68.4379 17.0539 67.9272 17.4009 67.4992 17.8377C67.4982 17.8387 67.4972 17.8397 67.4963 17.8407L55.8438 29.4906C55.8431 29.4914 55.8423 29.4922 55.8415 29.493C55.4733 29.8531 55.0144 30.1067 54.5136 30.2269C54.0136 30.3469 53.4904 30.3294 52.9997 30.1763L29.6792 22.4044L29.2395 22.2579L28.9118 22.5855L25.6719 25.8247L24.904 26.5924L25.8939 27.0388L44.6467 35.4956C44.647 35.4958 44.6473 35.4959 44.6476 35.496C45.0671 35.6871 45.4339 35.9771 45.7166 36.341C45.9996 36.7053 46.1898 37.1327 46.2711 37.5866C46.3524 38.0405 46.3223 38.5074 46.1833 38.9471C46.0443 39.3868 45.8006 39.7862 45.4731 40.1111L45.4698 40.1144L30.5674 55.0857C30.5672 55.0859 30.567 55.0861 30.5668 55.0863C30.1458 55.5074 29.6034 55.786 29.0158 55.8831C28.4288 55.9801 27.8262 55.8909 27.2925 55.6282C27.2916 55.6278 27.2908 55.6274 27.29 55.627L21.1393 52.5343L20.6867 52.3067L20.3066 52.6417L18.1826 54.5132L17.5838 55.0409L18.1477 55.6058L36.2549 73.7452L36.7852 74.2764L37.316 73.7457L39.3319 71.7302L39.7104 71.3518L39.4756 70.8708L36.5238 64.8243L36.5223 64.8214C36.2586 64.2873 36.1691 63.6839 36.2662 63.0962C36.3633 62.5086 36.6422 61.9661 37.0638 61.5451L37.0666 61.5422M74.1924 24.3878L37.0666 61.5422M37.0666 61.5422L51.8979 46.57C52.224 46.241 52.6254 45.9963 53.0673 45.8573C53.5093 45.7183 53.9785 45.6891 54.4342 45.7722L37.0666 61.5422ZM81.2498 21.0994L81.2498 21.1045C81.2573 22.4623 80.9942 23.8079 80.4759 25.063C79.9577 26.318 79.1947 27.4573 78.2314 28.4144L78.2313 28.4144L78.2241 28.4218L68.2525 38.6072L67.9322 38.9344L68.0768 39.3688L75.8486 62.715C75.8492 62.7169 75.8498 62.7188 75.8504 62.7207C76.0035 63.2113 76.021 63.7342 75.901 64.2341C75.7808 64.7348 75.5271 65.1936 75.1669 65.5617C75.1662 65.5624 75.1654 65.5632 75.1647 65.564L66.6772 74.0496C66.6767 74.0502 66.676 74.0508 66.6754 74.0514C66.3507 74.3717 65.9537 74.6095 65.5179 74.7447C65.0812 74.8801 64.6184 74.9084 64.1685 74.8274C63.7186 74.7464 63.2947 74.5583 62.9328 74.2791C62.5717 74.0006 62.2828 73.6395 62.0902 73.2262C62.0898 73.2252 62.0894 73.2243 62.0889 73.2233L53.632 54.586L53.1846 53.5999L52.4188 54.3656L43.0592 63.7232L42.6759 64.1064L42.9194 64.5906L46.0153 70.745C46.2856 71.2825 46.3788 71.8917 46.2815 72.4854C46.1844 73.0782 45.9023 73.6252 45.4756 74.0482C45.475 74.0487 45.4744 74.0493 45.4738 74.0499L38.9613 80.4171L38.9569 80.4214C38.423 80.9521 37.7007 81.25 36.9477 81.25C36.1954 81.25 35.4737 80.9526 34.9399 80.4228C34.9395 80.4224 34.939 80.4219 34.9385 80.4214L11.5787 57.0665C11.5784 57.0662 11.5782 57.066 11.578 57.0658C11.0476 56.532 10.75 55.8102 10.75 55.0579C10.75 54.3053 11.0479 53.5832 11.5787 53.0494L11.583 53.045L17.9427 46.5429C18.3774 46.1397 18.9271 45.8821 19.5154 45.806C20.1088 45.7293 20.7113 45.8412 21.2374 46.1259L21.2474 46.1313L21.2574 46.1364L27.4132 49.2316L27.8972 49.475L28.2804 49.0919L37.64 39.7343L38.4061 38.9683L37.4195 38.5209L18.7754 30.0644C18.362 29.8719 18.0008 29.583 17.7223 29.222C17.443 28.8602 17.255 28.4365 17.1739 27.9867C17.0929 27.537 17.1213 27.0743 17.2567 26.6378C17.3917 26.2025 17.6293 25.8059 17.9494 25.4813L26.5112 16.9931C26.5117 16.9927 26.5122 16.9923 26.5126 16.9918C26.8809 16.6312 27.3402 16.3772 27.8415 16.2569C28.3416 16.1369 28.8647 16.1544 29.3555 16.3076L52.7123 24.0795L53.1518 24.2257L53.4793 23.8983L63.5949 13.7848L63.5954 13.7843C65.0412 12.336 66.8844 11.3494 68.8916 10.9494C70.8988 10.5494 72.9796 10.7541 74.8703 11.5375C76.761 12.321 78.3765 13.6479 79.5122 15.3501C80.6479 17.0523 81.2526 19.0533 81.2498 21.0994Z" fill="white" stroke="#D40000" stroke-width="1.5"/>
</svg>
