<svg width="83" height="83" viewBox="0 0 83 83" fill="none" xmlns="http://www.w3.org/2000/svg">
<path d="M44.4584 13.8333V14.3333H44.9584H72.6251C73.4097 14.3333 74.1621 14.645 74.7169 15.1998C75.2717 15.7546 75.5834 16.507 75.5834 17.2916V51.875C75.5834 54.494 74.543 57.0057 72.6911 58.8576C70.8392 60.7096 68.3274 61.75 65.7084 61.75H49.8347H48.6238L49.4819 62.6043L57.436 70.5239L57.4367 70.5245C57.714 70.7996 57.9341 71.1268 58.0843 71.4873C58.2345 71.8478 58.3118 72.2344 58.3118 72.625C58.3118 73.0155 58.2345 73.4022 58.0843 73.7627C57.9341 74.1232 57.714 74.4504 57.4367 74.7254L57.4338 74.7283C57.1588 75.0056 56.8316 75.2256 56.4711 75.3758C56.1106 75.526 55.7239 75.6033 55.3334 75.6033C54.9429 75.6033 54.5562 75.526 54.1957 75.3758C53.8352 75.2256 53.508 75.0056 53.233 74.7283L53.2323 74.7276L45.3127 66.7734L44.4584 65.9154V67.1262V72.625C44.4584 73.4096 44.1467 74.162 43.5919 74.7168C43.0371 75.2716 42.2847 75.5833 41.5001 75.5833C40.7155 75.5833 39.963 75.2716 39.4082 74.7168C38.8534 74.162 38.5417 73.4096 38.5417 72.625V67.1262V65.9154L37.6874 66.7734L29.7678 74.7276L29.7672 74.7283C29.4921 75.0056 29.165 75.2256 28.8045 75.3758C28.444 75.526 28.0573 75.6033 27.6667 75.6033C27.2762 75.6033 26.8895 75.526 26.529 75.3758C26.1685 75.2256 25.8413 75.0056 25.5663 74.7283L25.5634 74.7254C25.2861 74.4504 25.0661 74.1232 24.9159 73.7627C24.7657 73.4022 24.6884 73.0155 24.6884 72.625C24.6884 72.2344 24.7657 71.8478 24.9159 71.4873C25.0661 71.1268 25.2861 70.7996 25.5634 70.5245L25.5641 70.5239L33.5183 62.6043L34.3763 61.75H33.1655H17.2917C14.6727 61.75 12.161 60.7096 10.3091 58.8576C8.45715 57.0057 7.41675 54.494 7.41675 51.875V17.2916C7.41675 16.507 7.72843 15.7546 8.28322 15.1998C8.83802 14.645 9.59048 14.3333 10.3751 14.3333H38.0417H38.5417V13.8333V10.375C38.5417 9.59036 38.8534 8.8379 39.4082 8.2831C39.963 7.72831 40.7155 7.41663 41.5001 7.41663C42.2847 7.41663 43.0371 7.72831 43.5919 8.2831C44.1467 8.8379 44.4584 9.59036 44.4584 10.375V13.8333ZM13.8334 20.25H13.3334V20.75V51.875C13.3334 52.9248 13.7505 53.9316 14.4928 54.6739C15.2351 55.4163 16.2419 55.8333 17.2917 55.8333H65.7084C66.7582 55.8333 67.765 55.4163 68.5074 54.6739C69.2497 53.9316 69.6667 52.9248 69.6667 51.875V20.75V20.25H69.1667H13.8334ZM31.1251 34.0833H24.2084C23.4238 34.0833 22.6714 33.7716 22.1166 33.2168C21.5618 32.662 21.2501 31.9096 21.2501 31.125C21.2501 30.3404 21.5618 29.5879 22.1166 29.0331C22.6714 28.4783 23.4238 28.1666 24.2084 28.1666H31.1251C31.9097 28.1666 32.6621 28.4783 33.2169 29.0331C33.7717 29.5879 34.0834 30.3404 34.0834 31.125C34.0834 31.9096 33.7717 32.662 33.2169 33.2168C32.6621 33.7716 31.9097 34.0833 31.1251 34.0833ZM44.9584 47.9166H24.2084C23.4238 47.9166 22.6714 47.6049 22.1166 47.0502C21.5618 46.4954 21.2501 45.7429 21.2501 44.9583C21.2501 44.1737 21.5618 43.4212 22.1166 42.8664C22.6714 42.3116 23.4238 42 24.2084 42H44.9584C45.743 42 46.4955 42.3116 47.0503 42.8664C47.6051 43.4212 47.9167 44.1737 47.9167 44.9583C47.9167 45.7429 47.6051 46.4954 47.0503 47.0502C46.4955 47.6049 45.743 47.9166 44.9584 47.9166Z" fill="white" stroke="#D40000"/>
</svg>