
<svg width="81" height="81" viewBox="0 0 81 81" fill="none" xmlns="http://www.w3.org/2000/svg">
<path d="M67 32.6362V32.9864L67.3292 33.1061C69.2106 33.7901 70.8319 35.0438 71.9674 36.6925C73.1029 38.3412 73.696 40.3029 73.6643 42.3046C73.6325 44.3062 72.9774 46.2482 71.7901 47.86C70.6029 49.4719 68.9426 50.6734 67.0404 51.2974L66.7375 51.3967L66.6998 51.7134C65.9473 58.038 62.9782 63.8915 58.3195 68.2347C53.6638 72.5753 47.6216 75.1269 41.2642 75.4375L40.5 75.4374L40.4973 75.4375C33.9205 75.4729 27.5655 73.0615 22.6677 68.6719C17.77 64.2823 14.6796 58.2283 13.9973 51.6868L13.9645 51.3721L13.666 51.267C11.7859 50.6057 10.1575 49.377 9.00559 47.7506C7.85365 46.1243 7.23499 44.1804 7.23499 42.1875C7.23499 40.1945 7.85365 38.2506 9.00559 36.6243C10.1575 34.9979 11.7859 33.7692 13.666 33.1079L13.998 32.9911L14 32.6391C14.0403 25.7084 16.7239 19.0543 21.5031 14.0348C26.2804 9.0175 32.7915 6.01151 39.7087 5.62969C42.6126 5.57343 45.5072 5.97623 48.2855 6.82322L48.3568 6.84495H48.4313H48.5575C53.9075 8.52492 58.5823 11.8693 61.8999 16.3918C65.2325 20.9346 67.0201 26.4266 67 32.0607V32.0625V32.6362ZM41.122 69.6872L41.122 69.6874L41.1332 69.6868C45.8762 69.4426 50.3972 67.602 53.962 64.464C57.5267 61.326 59.9258 57.0749 60.7696 52.4013L60.8759 51.8125H60.2775H20.5538H19.9624L20.0607 52.3956C20.8934 57.3343 23.4842 61.8051 27.3551 64.9832C31.226 68.1613 36.1157 69.8321 41.122 69.6872ZM19.7505 32.0409L19.728 32.5625H20.25H23.625C24.3875 32.5625 25.1188 32.8654 25.658 33.4045C26.1971 33.9437 26.5 34.675 26.5 35.4375C26.5 36.1999 26.1971 36.9312 25.658 37.4704C25.1188 38.0096 24.3875 38.3125 23.625 38.3125H16.875C15.8473 38.3125 14.8617 38.7207 14.135 39.4474C13.4083 40.1741 13 41.1597 13 42.1875C13 43.2152 13.4083 44.2008 14.135 44.9275C14.8617 45.6542 15.8473 46.0625 16.875 46.0625H64.125C65.1528 46.0625 66.1384 45.6542 66.8651 44.9275C67.5918 44.2008 68 43.2152 68 42.1875C68 41.1597 67.5918 40.1741 66.8651 39.4474C66.1384 38.7207 65.1527 38.3125 64.125 38.3125H57.375C56.6125 38.3125 55.8813 38.0096 55.3421 37.4704C54.8029 36.9312 54.5 36.1999 54.5 35.4375C54.5 34.675 54.8029 33.9437 55.3421 33.4045C55.8813 32.8654 56.6125 32.5625 57.375 32.5625H60.75H61.2496L61.25 32.0629C61.2526 29.2835 60.6968 26.5319 59.6156 23.9715C58.5344 21.411 56.9498 19.0938 54.9559 17.1575L54.956 17.1574L54.9468 17.1489C53.7045 16.0014 52.3391 14.9947 50.8756 14.1473L50.125 13.7127V14.58V25.3125C50.125 26.075 49.8221 26.8062 49.283 27.3454C48.7438 27.8846 48.0125 28.1875 47.25 28.1875C46.4875 28.1875 45.7563 27.8846 45.2171 27.3454C44.6779 26.8062 44.375 26.075 44.375 25.3125V12.1162V11.6928L43.9574 11.623C42.8168 11.4326 41.6634 11.3288 40.5071 11.3125L40.5071 11.3125H40.5H39.8925H39.8793L39.866 11.3132C38.9198 11.3634 37.9772 11.4669 37.0426 11.623L36.625 11.6928V12.1162V25.3125C36.625 26.075 36.3221 26.8062 35.783 27.3454C35.2438 27.8846 34.5125 28.1875 33.75 28.1875C32.9875 28.1875 32.2563 27.8846 31.7171 27.3454C31.1779 26.8062 30.875 26.075 30.875 25.3125V14.6812V13.7787L30.1099 14.2573C27.07 16.1588 24.5385 18.7714 22.7337 21.8696C20.9289 24.9678 19.9051 28.4587 19.7505 32.0409Z" fill="white" stroke="#D40000"/>
</svg>
