<svg width="86" height="86" viewBox="0 0 86 86" fill="none" xmlns="http://www.w3.org/2000/svg">
<path d="M28.3881 15.2927L28.3881 15.2926C25.8693 17.7202 23.8681 20.6327 22.5053 23.8546C21.1425 27.0764 20.4462 30.5409 20.4584 34.0391L20.4584 34.0417L20.4584 34.1492V34.3169L20.3869 34.4687L13.5643 48.9597L12.8857 48.6402L13.5643 48.9597C13.361 49.3914 13.2701 49.8674 13.2998 50.3436C13.3296 50.8198 13.4792 51.2807 13.7346 51.6837M28.3881 15.2927L13.7346 51.6837M28.3881 15.2927L28.3939 15.287M28.3881 15.2927L28.3939 15.287M13.7346 51.6837C13.9901 52.0867 14.3432 52.4186 14.7612 52.6487C15.1792 52.8788 15.6485 52.9997 16.1256 53M13.7346 51.6837L16.1256 53M16.1256 53H19.7084H20.4584V53.75L20.4584 60.9159C20.4584 60.9161 20.4584 60.9163 20.4584 60.9164C20.4602 62.6177 21.1369 64.2488 22.3399 65.4519C23.543 66.655 25.1743 67.3317 26.8758 67.3334H30.4584H31.2084V68.0834V75.25C31.2084 76.0015 31.5069 76.7221 32.0383 77.2535C32.5696 77.7849 33.2903 78.0834 34.0417 78.0834C34.7932 78.0834 35.5138 77.7849 36.0452 77.2535C36.5765 76.7221 36.8751 76.0015 36.8751 75.25V68.0834V67.3334H37.6251C38.3765 67.3334 39.0972 67.0349 39.6285 66.5035C40.1599 65.9721 40.4584 65.2515 40.4584 64.5C40.4584 63.7486 40.1599 63.0279 39.6285 62.4966C39.0972 61.9652 38.3765 61.6667 37.6251 61.6667H26.8751H26.1251V60.9167V50.1667C26.1251 49.4152 25.8265 48.6946 25.2952 48.1632C24.7638 47.6319 24.0432 47.3334 23.2917 47.3334H21.7724H20.5899L21.0939 46.2637L25.8956 36.0727L25.8966 36.0705C26.0905 35.6625 26.1827 35.2138 26.1653 34.7625L26.1263 34.0848L26.1251 34.0646L26.1251 34.0443C26.1156 31.3036 26.6613 28.5895 27.7293 26.0654C28.7972 23.5414 30.3652 21.2598 32.3388 19.3582C34.309 17.4548 36.6397 15.9643 39.1941 14.9745C41.7487 13.9846 44.4756 13.5154 47.2142 13.5944L47.2267 13.5948L47.2393 13.5956C52.6643 13.9342 57.7499 16.3513 61.4382 20.3441C65.1265 24.3368 67.1334 29.5978 67.0416 35.0326L67.0401 35.1228L67.0172 35.2101L59.9688 62.0994C59.9688 62.0994 59.9688 62.0994 59.9688 62.0994C59.8384 62.597 59.8442 63.1205 59.9855 63.6151C59.9856 63.6156 59.9857 63.616 59.9858 63.6164L63.5686 76.0343L16.1256 53ZM28.3939 15.287C30.8889 12.83 33.8604 10.9095 37.1254 9.64373C40.3883 8.37876 43.8754 7.79444 47.3725 7.92665C54.2682 8.31193 60.75 11.3412 65.4691 16.3842C70.1898 21.4288 72.7828 28.0998 72.7084 35.0083H72.7084V35.0164L72.7084 35.8313C72.7084 35.8318 72.7084 35.8322 72.7084 35.8327C72.7076 36.0781 72.6762 36.3225 72.6147 36.5602C72.6145 36.561 72.6143 36.5617 72.6141 36.5624L65.6994 62.5983L65.6461 62.7991L65.7037 62.9988L69.0145 74.4646C69.0145 74.4646 69.0145 74.4646 69.0145 74.4646C69.2219 75.1864 69.1342 75.9609 68.7708 76.6181C68.4074 77.2753 67.798 77.7613 67.0765 77.9694L67.0761 77.9695M28.3939 15.287L67.0761 77.9695M67.0761 77.9695C66.8203 78.0434 66.5556 78.0817 66.2894 78.0834C65.6757 78.0824 65.0789 77.8824 64.5884 77.5134C64.0973 77.144 63.7395 76.625 63.5687 76.0347L67.0761 77.9695Z" fill="white" stroke="#D40000" stroke-width="1.5"/>
</svg>
